# xmcd
#
# Track frame offsets: 
#        150
#        19970
#        37145
#        54316
#        68943
#        87949
#        118547
#        135847
#
# Disc length: 2045 seconds
#
# Revision: 0
# Processed by: cddbd v1.5.2PL0 Copyright (c) Steve Scherf et al.
# Submitted via: ExactAudioCopy v1.2
#
DISCID=6607fb08
DTITLE=Angelique Francis - Kissed By The Blues
DYEAR=2018
DGENRE=Blues
TTITLE0=What's Your Story
TTITLE1=24 Hours
TTITLE2=Should Have Known
TTITLE3=We'll Find
TTITLE4=Not So Long Ago
TTITLE5=Let Me Be Your Guide
TTITLE6=What've You Done
TTITLE7=Nothin' I Can Do
EXTD=
EXTT0=
EXTT1=
EXTT2=
EXTT3=
EXTT4=
EXTT5=
EXTT6=
EXTT7=
PLAYORDER=
